{
    "asset" : {
        "generator" : "Khronos glTF Blender I/O v3.2.43",
        "version" : "2.0"
    },
    "extensionsUsed" : [
        "KHR_materials_transmission"
    ],
    "scene" : 0,
    "scenes" : [
        {
            "name" : "Scene",
            "nodes" : [
                0
            ]
        }
    ],
    "nodes" : [
        {
            "mesh" : 0,
            "name" : "Cylinder",
            "rotation" : [
                0.06635117530822754,
                0.07608037441968918,
                -0.07036848366260529,
                0.9923999309539795
            ],
            "scale" : [
                1.4859120845794678,
                1.4859120845794678,
                1.4859120845794678
            ],
            "translation" : [
                -0.24680685997009277,
                1.3051526546478271,
                0.20617032051086426
            ]
        }
    ],
    "materials" : [
        {
            "doubleSided" : true,
            "name" : "Material.006",
            "pbrMetallicRoughness" : {
                "metallicFactor" : 0
            }
        },
        {
            "doubleSided" : true,
            "emissiveFactor" : [
                0.2025902457535267,
                1,
                1
            ],
            "name" : "Material.002",
            "pbrMetallicRoughness" : {
                "baseColorFactor" : [
                    0,
                    0,
                    0,
                    1
                ]
            }
        },
        {
            "doubleSided" : true,
            "extensions" : {
                "KHR_materials_transmission" : {
                    "transmissionFactor" : 0.4318181872367859
                }
            },
            "name" : "Material.005",
            "pbrMetallicRoughness" : {
                "metallicFactor" : 0,
                "roughnessFactor" : 0
            }
        }
    ],
    "meshes" : [
        {
            "name" : "Cylinder",
            "primitives" : [
                {
                    "attributes" : {
                        "POSITION" : 0,
                        "NORMAL" : 1,
                        "TEXCOORD_0" : 2
                    },
                    "indices" : 3,
                    "material" : 0
                },
                {
                    "attributes" : {
                        "POSITION" : 4,
                        "NORMAL" : 5,
                        "TEXCOORD_0" : 6
                    },
                    "indices" : 7,
                    "material" : 1
                },
                {
                    "attributes" : {
                        "POSITION" : 8,
                        "NORMAL" : 9,
                        "TEXCOORD_0" : 10
                    },
                    "indices" : 11,
                    "material" : 2
                }
            ]
        }
    ],
    "accessors" : [
        {
            "bufferView" : 0,
            "componentType" : 5126,
            "count" : 1020,
            "max" : [
                2.6519384384155273,
                0.2696132957935333,
                2.3410046100616455
            ],
            "min" : [
                -2.6519386768341064,
                -0.5126394033432007,
                -2.341003656387329
            ],
            "type" : "VEC3"
        },
        {
            "bufferView" : 1,
            "componentType" : 5126,
            "count" : 1020,
            "type" : "VEC3"
        },
        {
            "bufferView" : 2,
            "componentType" : 5126,
            "count" : 1020,
            "type" : "VEC2"
        },
        {
            "bufferView" : 3,
            "componentType" : 5123,
            "count" : 1572,
            "type" : "SCALAR"
        },
        {
            "bufferView" : 4,
            "componentType" : 5126,
            "count" : 416,
            "max" : [
                2.6814475059509277,
                -0.09346391260623932,
                2.3690502643585205
            ],
            "min" : [
                -2.6814472675323486,
                -0.3934641182422638,
                -2.369048833847046
            ],
            "type" : "VEC3"
        },
        {
            "bufferView" : 5,
            "componentType" : 5126,
            "count" : 416,
            "type" : "VEC3"
        },
        {
            "bufferView" : 6,
            "componentType" : 5126,
            "count" : 416,
            "type" : "VEC2"
        },
        {
            "bufferView" : 7,
            "componentType" : 5123,
            "count" : 624,
            "type" : "SCALAR"
        },
        {
            "bufferView" : 8,
            "componentType" : 5126,
            "count" : 1060,
            "max" : [
                1.4896976947784424,
                1.0355347394943237,
                1.8287047147750854
            ],
            "min" : [
                -1.7698252201080322,
                -0.25959768891334534,
                -1.3494763374328613
            ],
            "type" : "VEC3"
        },
        {
            "bufferView" : 9,
            "componentType" : 5126,
            "count" : 1060,
            "type" : "VEC3"
        },
        {
            "bufferView" : 10,
            "componentType" : 5126,
            "count" : 1060,
            "type" : "VEC2"
        },
        {
            "bufferView" : 11,
            "componentType" : 5123,
            "count" : 1632,
            "type" : "SCALAR"
        }
    ],
    "bufferViews" : [
        {
            "buffer" : 0,
            "byteLength" : 12240,
            "byteOffset" : 0
        },
        {
            "buffer" : 0,
            "byteLength" : 12240,
            "byteOffset" : 12240
        },
        {
            "buffer" : 0,
            "byteLength" : 8160,
            "byteOffset" : 24480
        },
        {
            "buffer" : 0,
            "byteLength" : 3144,
            "byteOffset" : 32640
        },
        {
            "buffer" : 0,
            "byteLength" : 4992,
            "byteOffset" : 35784
        },
        {
            "buffer" : 0,
            "byteLength" : 4992,
            "byteOffset" : 40776
        },
        {
            "buffer" : 0,
            "byteLength" : 3328,
            "byteOffset" : 45768
        },
        {
            "buffer" : 0,
            "byteLength" : 1248,
            "byteOffset" : 49096
        },
        {
            "buffer" : 0,
            "byteLength" : 12720,
            "byteOffset" : 50344
        },
        {
            "buffer" : 0,
            "byteLength" : 12720,
            "byteOffset" : 63064
        },
        {
            "buffer" : 0,
            "byteLength" : 8480,
            "byteOffset" : 75784
        },
        {
            "buffer" : 0,
            "byteLength" : 3264,
            "byteOffset" : 84264
        }
    ],
    "buffers" : [
        {
            "byteLength" : 87528,
            "uri" : "data:application/octet-stream;base64,"
        }
    ]
}
