{
    "asset" : {
        "generator" : "Khronos glTF Blender I/O v3.2.43",
        "version" : "2.0"
    },
    "scene" : 0,
    "scenes" : [
        {
            "name" : "Scene",
            "nodes" : [
                0,
                1,
                2,
                3
            ]
        }
    ],
    "nodes" : [
        {
            "mesh" : 0,
            "name" : "Cube.001",
            "scale" : [
                1.5062545537948608,
                1.5062545537948608,
                1.50625741481781
            ],
            "translation" : [
                0.523032546043396,
                -0.431476354598999,
                -0.3684101998806
            ]
        },
        {
            "mesh" : 1,
            "name" : "Cube.003",
            "scale" : [
                1.0051063299179077,
                1.0051063299179077,
                1.0051082372665405
            ],
            "translation" : [
                8.832436561584473,
                -1.0338131189346313,
                -4.815544605255127
            ]
        },
        {
            "mesh" : 2,
            "name" : "Cube.005",
            "scale" : [
                1.8752844333648682,
                1.8752844333648682,
                1.8752880096435547
            ],
            "translation" : [
                2.7983789443969727,
                4.745511531829834,
                -0.10280366241931915
            ]
        },
        {
            "mesh" : 3,
            "name" : "Cube.006",
            "scale" : [
                1.8847098350524902,
                1.8847098350524902,
                1.8847134113311768
            ],
            "translation" : [
                2.7983789443969727,
                4.745511531829834,
                -0.10280366241931915
            ]
        }
    ],
    "materials" : [
        {
            "doubleSided" : true,
            "name" : "sharkup",
            "pbrMetallicRoughness" : {
                "baseColorFactor" : [
                    0.17335490882396698,
                    0.15421991050243378,
                    0.15421991050243378,
                    1
                ],
                "metallicFactor" : 0,
                "roughnessFactor" : 0.4000000059604645
            }
        },
        {
            "doubleSided" : true,
            "name" : "bland",
            "pbrMetallicRoughness" : {
                "baseColorFactor" : [
                    0,
                    0,
                    0,
                    1
                ],
                "metallicFactor" : 0,
                "roughnessFactor" : 0.4000000059604645
            }
        },
        {
            "doubleSided" : true,
            "name" : "eye",
            "pbrMetallicRoughness" : {
                "baseColorFactor" : [
                    0.800000011920929,
                    0.800000011920929,
                    0.800000011920929,
                    1
                ],
                "metallicFactor" : 0,
                "roughnessFactor" : 0.4000000059604645
            }
        },
        {
            "doubleSided" : true,
            "name" : "Material",
            "pbrMetallicRoughness" : {
                "baseColorFactor" : [
                    0.33716365694999695,
                    0.011612245813012123,
                    0.0368894599378109,
                    1
                ],
                "metallicFactor" : 0,
                "roughnessFactor" : 0.4000000059604645
            }
        },
        {
            "doubleSided" : true,
            "name" : "bland.004",
            "pbrMetallicRoughness" : {
                "baseColorFactor" : [
                    0,
                    0,
                    0,
                    1
                ],
                "metallicFactor" : 0,
                "roughnessFactor" : 0.4000000059604645
            }
        },
        {
            "doubleSided" : true,
            "name" : "sharkdown.001",
            "pbrMetallicRoughness" : {
                "baseColorFactor" : [
                    1,
                    1,
                    1,
                    1
                ],
                "metallicFactor" : 0,
                "roughnessFactor" : 0.4000000059604645
            }
        },
        {
            "doubleSided" : true,
            "name" : "bland.001",
            "pbrMetallicRoughness" : {
                "baseColorFactor" : [
                    0,
                    0,
                    0,
                    1
                ],
                "metallicFactor" : 0,
                "roughnessFactor" : 0.4000000059604645
            }
        },
        {
            "doubleSided" : true,
            "name" : "eye.001",
            "pbrMetallicRoughness" : {
                "baseColorFactor" : [
                    0.800000011920929,
                    0.800000011920929,
                    0.800000011920929,
                    1
                ],
                "metallicFactor" : 0,
                "roughnessFactor" : 0.4000000059604645
            }
        }
    ],
    "meshes" : [
        {
            "name" : "Cube",
            "primitives" : [
                {
                    "attributes" : {
                        "POSITION" : 0,
                        "NORMAL" : 1,
                        "TEXCOORD_0" : 2
                    },
                    "indices" : 3,
                    "material" : 0
                },
                {
                    "attributes" : {
                        "POSITION" : 4,
                        "NORMAL" : 5,
                        "TEXCOORD_0" : 6
                    },
                    "indices" : 7,
                    "material" : 1
                },
                {
                    "attributes" : {
                        "POSITION" : 8,
                        "NORMAL" : 9,
                        "TEXCOORD_0" : 10
                    },
                    "indices" : 11,
                    "material" : 2
                },
                {
                    "attributes" : {
                        "POSITION" : 12,
                        "NORMAL" : 13,
                        "TEXCOORD_0" : 14
                    },
                    "indices" : 15,
                    "material" : 3
                }
            ]
        },
        {
            "name" : "Cube.001",
            "primitives" : [
                {
                    "attributes" : {
                        "POSITION" : 16,
                        "NORMAL" : 17,
                        "TEXCOORD_0" : 18
                    },
                    "indices" : 19,
                    "material" : 4
                }
            ]
        },
        {
            "name" : "Cube.007",
            "primitives" : [
                {
                    "attributes" : {
                        "POSITION" : 20,
                        "NORMAL" : 21,
                        "TEXCOORD_0" : 22
                    },
                    "indices" : 23,
                    "material" : 5
                },
                {
                    "attributes" : {
                        "POSITION" : 24,
                        "NORMAL" : 25,
                        "TEXCOORD_0" : 26
                    },
                    "indices" : 27,
                    "material" : 6
                },
                {
                    "attributes" : {
                        "POSITION" : 28,
                        "NORMAL" : 29,
                        "TEXCOORD_0" : 30
                    },
                    "indices" : 31,
                    "material" : 7
                }
            ]
        },
        {
            "name" : "Cube.008",
            "primitives" : [
                {
                    "attributes" : {
                        "POSITION" : 32,
                        "NORMAL" : 33,
                        "TEXCOORD_0" : 34
                    },
                    "indices" : 35,
                    "material" : 5
                }
            ]
        }
    ],
    "accessors" : [
        {
            "bufferView" : 0,
            "componentType" : 5126,
            "count" : 2799,
            "max" : [
                3.2543554306030273,
                1.3021959066390991,
                1.201556921005249
            ],
            "min" : [
                -5.06401252746582,
                -1.3740947246551514,
                -1.2015568017959595
            ],
            "type" : "VEC3"
        },
        {
            "bufferView" : 1,
            "componentType" : 5126,
            "count" : 2799,
            "type" : "VEC3"
        },
        {
            "bufferView" : 2,
            "componentType" : 5126,
            "count" : 2799,
            "type" : "VEC2"
        },
        {
            "bufferView" : 3,
            "componentType" : 5123,
            "count" : 14856,
            "type" : "SCALAR"
        },
        {
            "bufferView" : 4,
            "componentType" : 5126,
            "count" : 1536,
            "max" : [
                1.6705238819122314,
                0.0692012831568718,
                0.6102439165115356
            ],
            "min" : [
                1.1923341751098633,
                -0.33432406187057495,
                -0.6102439761161804
            ],
            "type" : "VEC3"
        },
        {
            "bufferView" : 5,
            "componentType" : 5126,
            "count" : 1536,
            "type" : "VEC3"
        },
        {
            "bufferView" : 6,
            "componentType" : 5126,
            "count" : 1536,
            "type" : "VEC2"
        },
        {
            "bufferView" : 7,
            "componentType" : 5123,
            "count" : 2304,
            "type" : "SCALAR"
        },
        {
            "bufferView" : 8,
            "componentType" : 5126,
            "count" : 1015,
            "max" : [
                3.267493486404419,
                0.25976455211639404,
                0.8237062692642212
            ],
            "min" : [
                -2.222144603729248,
                -0.8791635632514954,
                -0.8237062692642212
            ],
            "type" : "VEC3"
        },
        {
            "bufferView" : 9,
            "componentType" : 5126,
            "count" : 1015,
            "type" : "VEC3"
        },
        {
            "bufferView" : 10,
            "componentType" : 5126,
            "count" : 1015,
            "type" : "VEC2"
        },
        {
            "bufferView" : 11,
            "componentType" : 5123,
            "count" : 5112,
            "type" : "SCALAR"
        },
        {
            "bufferView" : 12,
            "componentType" : 5126,
            "count" : 81,
            "max" : [
                2.7968218326568604,
                -0.33427542448043823,
                0.3124057352542877
            ],
            "min" : [
                2.076446056365967,
                -0.44897204637527466,
                -0.31240570545196533
            ],
            "type" : "VEC3"
        },
        {
            "bufferView" : 13,
            "componentType" : 5126,
            "count" : 81,
            "type" : "VEC3"
        },
        {
            "bufferView" : 14,
            "componentType" : 5126,
            "count" : 81,
            "type" : "VEC2"
        },
        {
            "bufferView" : 15,
            "componentType" : 5123,
            "count" : 384,
            "type" : "SCALAR"
        },
        {
            "bufferView" : 16,
            "componentType" : 5126,
            "count" : 32,
            "max" : [
                -5.079176425933838,
                0.42341548204421997,
                3.5092556476593018
            ],
            "min" : [
                -5.509361743927002,
                -0.017718173563480377,
                3.4500534534454346
            ],
            "type" : "VEC3"
        },
        {
            "bufferView" : 17,
            "componentType" : 5126,
            "count" : 32,
            "type" : "VEC3"
        },
        {
            "bufferView" : 18,
            "componentType" : 5126,
            "count" : 32,
            "type" : "VEC2"
        },
        {
            "bufferView" : 19,
            "componentType" : 5123,
            "count" : 48,
            "type" : "SCALAR"
        },
        {
            "bufferView" : 20,
            "componentType" : 5126,
            "count" : 78,
            "max" : [
                0.9051129817962646,
                -2.5622646808624268,
                -0.37987059354782104
            ],
            "min" : [
                0.5871238708496094,
                -2.8699846267700195,
                -0.6978592276573181
            ],
            "type" : "VEC3"
        },
        {
            "bufferView" : 21,
            "componentType" : 5126,
            "count" : 78,
            "type" : "VEC3"
        },
        {
            "bufferView" : 22,
            "componentType" : 5126,
            "count" : 78,
            "type" : "VEC2"
        },
        {
            "bufferView" : 23,
            "componentType" : 5123,
            "count" : 396,
            "type" : "SCALAR"
        },
        {
            "bufferView" : 24,
            "componentType" : 5126,
            "count" : 132,
            "max" : [
                0.8948440551757812,
                -2.5519957542419434,
                -0.4312252402305603
            ],
            "min" : [
                0.5973927974700928,
                -2.822145700454712,
                -0.7281809449195862
            ],
            "type" : "VEC3"
        },
        {
            "bufferView" : 25,
            "componentType" : 5126,
            "count" : 132,
            "type" : "VEC3"
        },
        {
            "bufferView" : 26,
            "componentType" : 5126,
            "count" : 132,
            "type" : "VEC2"
        },
        {
            "bufferView" : 27,
            "componentType" : 5123,
            "count" : 720,
            "type" : "SCALAR"
        },
        {
            "bufferView" : 28,
            "componentType" : 5126,
            "count" : 14,
            "max" : [
                0.9051129817962646,
                -2.6547770500183105,
                -0.42643898725509644
            ],
            "min" : [
                0.7999380826950073,
                -2.7648098468780518,
                -0.6875904202461243
            ],
            "type" : "VEC3"
        },
        {
            "bufferView" : 29,
            "componentType" : 5126,
            "count" : 14,
            "type" : "VEC3"
        },
        {
            "bufferView" : 30,
            "componentType" : 5126,
            "count" : 14,
            "type" : "VEC2"
        },
        {
            "bufferView" : 31,
            "componentType" : 5123,
            "count" : 36,
            "type" : "SCALAR"
        },
        {
            "bufferView" : 32,
            "componentType" : 5126,
            "count" : 260,
            "max" : [
                1.4061397314071655,
                -2.672616720199585,
                -0.14163506031036377
            ],
            "min" : [
                0.8290198445320129,
                -2.99104905128479,
                -0.4129052460193634
            ],
            "type" : "VEC3"
        },
        {
            "bufferView" : 33,
            "componentType" : 5126,
            "count" : 260,
            "type" : "VEC3"
        },
        {
            "bufferView" : 34,
            "componentType" : 5126,
            "count" : 260,
            "type" : "VEC2"
        },
        {
            "bufferView" : 35,
            "componentType" : 5123,
            "count" : 744,
            "type" : "SCALAR"
        }
    ],
    "bufferViews" : [
        {
            "buffer" : 0,
            "byteLength" : 33588,
            "byteOffset" : 0
        },
        {
            "buffer" : 0,
            "byteLength" : 33588,
            "byteOffset" : 33588
        },
        {
            "buffer" : 0,
            "byteLength" : 22392,
            "byteOffset" : 67176
        },
        {
            "buffer" : 0,
            "byteLength" : 29712,
            "byteOffset" : 89568
        },
        {
            "buffer" : 0,
            "byteLength" : 18432,
            "byteOffset" : 119280
        },
        {
            "buffer" : 0,
            "byteLength" : 18432,
            "byteOffset" : 137712
        },
        {
            "buffer" : 0,
            "byteLength" : 12288,
            "byteOffset" : 156144
        },
        {
            "buffer" : 0,
            "byteLength" : 4608,
            "byteOffset" : 168432
        },
        {
            "buffer" : 0,
            "byteLength" : 12180,
            "byteOffset" : 173040
        },
        {
            "buffer" : 0,
            "byteLength" : 12180,
            "byteOffset" : 185220
        },
        {
            "buffer" : 0,
            "byteLength" : 8120,
            "byteOffset" : 197400
        },
        {
            "buffer" : 0,
            "byteLength" : 10224,
            "byteOffset" : 205520
        },
        {
            "buffer" : 0,
            "byteLength" : 972,
            "byteOffset" : 215744
        },
        {
            "buffer" : 0,
            "byteLength" : 972,
            "byteOffset" : 216716
        },
        {
            "buffer" : 0,
            "byteLength" : 648,
            "byteOffset" : 217688
        },
        {
            "buffer" : 0,
            "byteLength" : 768,
            "byteOffset" : 218336
        },
        {
            "buffer" : 0,
            "byteLength" : 384,
            "byteOffset" : 219104
        },
        {
            "buffer" : 0,
            "byteLength" : 384,
            "byteOffset" : 219488
        },
        {
            "buffer" : 0,
            "byteLength" : 256,
            "byteOffset" : 219872
        },
        {
            "buffer" : 0,
            "byteLength" : 96,
            "byteOffset" : 220128
        },
        {
            "buffer" : 0,
            "byteLength" : 936,
            "byteOffset" : 220224
        },
        {
            "buffer" : 0,
            "byteLength" : 936,
            "byteOffset" : 221160
        },
        {
            "buffer" : 0,
            "byteLength" : 624,
            "byteOffset" : 222096
        },
        {
            "buffer" : 0,
            "byteLength" : 792,
            "byteOffset" : 222720
        },
        {
            "buffer" : 0,
            "byteLength" : 1584,
            "byteOffset" : 223512
        },
        {
            "buffer" : 0,
            "byteLength" : 1584,
            "byteOffset" : 225096
        },
        {
            "buffer" : 0,
            "byteLength" : 1056,
            "byteOffset" : 226680
        },
        {
            "buffer" : 0,
            "byteLength" : 1440,
            "byteOffset" : 227736
        },
        {
            "buffer" : 0,
            "byteLength" : 168,
            "byteOffset" : 229176
        },
        {
            "buffer" : 0,
            "byteLength" : 168,
            "byteOffset" : 229344
        },
        {
            "buffer" : 0,
            "byteLength" : 112,
            "byteOffset" : 229512
        },
        {
            "buffer" : 0,
            "byteLength" : 72,
            "byteOffset" : 229624
        },
        {
            "buffer" : 0,
            "byteLength" : 3120,
            "byteOffset" : 229696
        },
        {
            "buffer" : 0,
            "byteLength" : 3120,
            "byteOffset" : 232816
        },
        {
            "buffer" : 0,
            "byteLength" : 2080,
            "byteOffset" : 235936
        },
        {
            "buffer" : 0,
            "byteLength" : 1488,
            "byteOffset" : 238016
        }
    ],
    "buffers" : [
        {
            "byteLength" : 239504,
            "uri" : "data:application/octet-stream;base64,"
        }
    ]
}
